<?xml version="1.0" encoding="UTF-8" standalone="no"?>
<!-- Generator: Adobe Illustrator 19.0.0, SVG Export Plug-In . SVG Version: 6.00 Build 0)  -->

<svg
   xmlns:dc="http://purl.org/dc/elements/1.1/"
   xmlns:cc="http://creativecommons.org/ns#"
   xmlns:rdf="http://www.w3.org/1999/02/22-rdf-syntax-ns#"
   xmlns:svg="http://www.w3.org/2000/svg"
   xmlns="http://www.w3.org/2000/svg"
   xmlns:sodipodi="http://sodipodi.sourceforge.net/DTD/sodipodi-0.dtd"
   xmlns:inkscape="http://www.inkscape.org/namespaces/inkscape"
   version="1.1"
   id="Layer_1"
   x="0px"
   y="0px"
   viewBox="0 0 512 355.12201"
   xml:space="preserve"
   width="512"
   height="355.12201"
   sodipodi:docname="menu.svg"
   inkscape:version="0.92.3 (2405546, 2018-03-11)"><metadata
   id="metadata55"><rdf:RDF><cc:Work
       rdf:about=""><dc:format>image/svg+xml</dc:format><dc:type
         rdf:resource="http://purl.org/dc/dcmitype/StillImage" /><dc:title></dc:title></cc:Work></rdf:RDF></metadata><defs
   id="defs53" /><sodipodi:namedview
   pagecolor="#ffffff"
   bordercolor="#666666"
   borderopacity="1"
   objecttolerance="10"
   gridtolerance="10"
   guidetolerance="10"
   inkscape:pageopacity="0"
   inkscape:pageshadow="2"
   inkscape:window-width="756"
   inkscape:window-height="480"
   id="namedview51"
   showgrid="false"
   fit-margin-top="0"
   fit-margin-left="0"
   fit-margin-right="0"
   fit-margin-bottom="0"
   inkscape:zoom="0.4609375"
   inkscape:cx="256"
   inkscape:cy="177.561"
   inkscape:window-x="0"
   inkscape:window-y="0"
   inkscape:window-maximized="0"
   inkscape:current-layer="Layer_1" />
<g
   id="g6"
   transform="translate(0,-78.439)">
	<g
   id="g4">
		<path
   d="M 491.318,235.318 H 20.682 C 9.26,235.318 0,244.577 0,256 c 0,11.423 9.26,20.682 20.682,20.682 h 470.636 c 11.423,0 20.682,-9.259 20.682,-20.682 0,-11.422 -9.259,-20.682 -20.682,-20.682 z"
   id="path2"
   inkscape:connector-curvature="0"
   style="fill:#ffffff" />
	</g>
</g>
<g
   id="g12"
   transform="translate(0,-78.439)">
	<g
   id="g10">
		<path
   d="M 491.318,78.439 H 20.682 C 9.26,78.439 0,87.699 0,99.121 c 0,11.422 9.26,20.682 20.682,20.682 h 470.636 c 11.423,0 20.682,-9.26 20.682,-20.682 0,-11.422 -9.259,-20.682 -20.682,-20.682 z"
   id="path8"
   inkscape:connector-curvature="0"
   style="fill:#ffffff" />
	</g>
</g>
<g
   id="g18"
   transform="translate(0,-78.439)">
	<g
   id="g16">
		<path
   d="M 491.318,392.197 H 20.682 C 9.26,392.197 0,401.456 0,412.879 c 0,11.423 9.26,20.682 20.682,20.682 h 470.636 c 11.423,0 20.682,-9.259 20.682,-20.682 0,-11.423 -9.259,-20.682 -20.682,-20.682 z"
   id="path14"
   inkscape:connector-curvature="0"
   style="fill:#ffffff" />
	</g>
</g>
<g
   id="g20"
   transform="translate(0,-78.439)">
</g>
<g
   id="g22"
   transform="translate(0,-78.439)">
</g>
<g
   id="g24"
   transform="translate(0,-78.439)">
</g>
<g
   id="g26"
   transform="translate(0,-78.439)">
</g>
<g
   id="g28"
   transform="translate(0,-78.439)">
</g>
<g
   id="g30"
   transform="translate(0,-78.439)">
</g>
<g
   id="g32"
   transform="translate(0,-78.439)">
</g>
<g
   id="g34"
   transform="translate(0,-78.439)">
</g>
<g
   id="g36"
   transform="translate(0,-78.439)">
</g>
<g
   id="g38"
   transform="translate(0,-78.439)">
</g>
<g
   id="g40"
   transform="translate(0,-78.439)">
</g>
<g
   id="g42"
   transform="translate(0,-78.439)">
</g>
<g
   id="g44"
   transform="translate(0,-78.439)">
</g>
<g
   id="g46"
   transform="translate(0,-78.439)">
</g>
<g
   id="g48"
   transform="translate(0,-78.439)">
</g>
</svg>